<svg id="Calque_1" data-name="Calque 1" xmlns="http://www.w3.org/2000/svg" viewBox="0 0 384 384"><defs><style>.cls-1{fill:#fff;}</style></defs><path class="cls-1" d="M256.09,98.83q-87.4,0-174.8,0a29.66,29.66,0,0,1-5.07-.34C68.61,97.16,64,90.72,64,81.45s4.5-15.73,12.14-17.09A24.92,24.92,0,0,1,80.53,64q175.49,0,351,0a26.81,26.81,0,0,1,4.73.4c7.51,1.37,11.75,7.52,11.78,17s-4.32,15.7-11.7,17a30.68,30.68,0,0,1-5.41.42Q343.49,98.85,256.09,98.83Z" transform="translate(-64 -64)"/><path class="cls-1" d="M256.3,238.86q87.39,0,174.79,0a28.82,28.82,0,0,1,6.43.4c6.6,1.53,10.69,8.56,10.45,17.58-.23,8.75-4.59,15-11.3,16.15a30.69,30.69,0,0,1-5.07.3H80.33a32.51,32.51,0,0,1-4.07-.16c-7.48-.93-12.48-8.06-12.22-17.37.26-9.72,5.11-16.14,12.73-16.78,1.69-.14,3.39-.13,5.08-.13Z" transform="translate(-64 -64)"/><path class="cls-1" d="M256.14,413.55q87.75,0,175.48,0a23,23,0,0,1,5.75.38c6.51,1.65,10.6,8.18,10.63,16.58,0,8.78-3.93,15.11-10.67,16.91a18.33,18.33,0,0,1-4.71.55q-176.5,0-353,0c-9.38,0-14.39-5.12-15.4-15.6-.94-9.67,4.33-17.91,12-18.73a44.06,44.06,0,0,1,4.74-.12Z" transform="translate(-64 -64)"/></svg>