<svg id="Calque_1" data-name="Calque 1" xmlns="http://www.w3.org/2000/svg" viewBox="0 0 384 384"><defs><style>.cls-1{fill:#fff;}</style></defs><path class="cls-1" d="M255.81,283.47c-5.09,5.16-9.85,10-14.66,14.84Q170.3,369.22,99.44,440.1c-7.29,7.3-16.33,9.77-23.71,6.45-13.32-6-15.73-20.83-5-31.7q25.47-25.78,51.08-51.41,51.62-52,103.24-103.94a60.5,60.5,0,0,1,4.9-3.84c-2.27-1.45-3.77-2.07-4.84-3.14Q148.17,175.71,71.33,98.81c-8.13-8.13-9.57-18.19-3.9-26.89,6.32-9.7,21.18-10.57,30.37-1.62,7.27,7.08,14.37,14.34,21.55,21.52L252.94,225.38c.9.9,1.83,1.76,3,2.9,1.09-1,2.13-1.93,3.1-2.89L414.47,71.12c6.91-6.86,14.58-8.81,22-5.64,12.56,5.38,15.36,21.1,5.66,31.86-.77.86-1.62,1.65-2.44,2.47Q363.37,176.13,287,252.43a26.89,26.89,0,0,1-3.75,2.7l-.26,1.78a38.08,38.08,0,0,1,5,3.6q76.4,76.82,152.72,153.7c7.19,7.24,9.11,15,5.67,22.65-5.71,12.68-20.74,14.88-31.36,4.44-13.29-13.06-26.44-26.26-39.66-39.39L259,286.5C258.12,285.61,257.18,284.76,255.81,283.47Z" transform="translate(-64 -64)"/></svg>