<svg id="visual" viewBox="0 0 900 600" width="900" height="600" xmlns="http://www.w3.org/2000/svg" xmlns:xlink="http://www.w3.org/1999/xlink" version="1.1"><g stroke-width="1" stroke-linejoin="bevel"><path d="M475 282L469 342L482.3 329Z" fill="#df763e" stroke="#df763e"></path><path d="M469 342L490 360L482.3 329Z" fill="#c24a4e" stroke="#c24a4e"></path><path d="M482.3 329L525.3 247L475 282Z" fill="#772557" stroke="#772557"></path><path d="M490 360L501.3 364L482.3 329Z" fill="#5a1f53" stroke="#5a1f53"></path><path d="M352.4 361L461 392L469 342Z" fill="#3c1a4b" stroke="#3c1a4b"></path><path d="M469 342L461 392L490 360Z" fill="#1f143f" stroke="#1f143f"></path><path d="M490 360L461 392L501.3 364Z" fill="#3c1a4b" stroke="#3c1a4b"></path><path d="M475 282L373.7 255L469 342Z" fill="#772557" stroke="#772557"></path><path d="M426.7 226L417.7 229L475 282Z" fill="#e68f35" stroke="#e68f35"></path><path d="M475 282L442 218L426.7 226Z" fill="#772557" stroke="#772557"></path><path d="M391 171L374.4 194L417.7 229Z" fill="#c24a4e" stroke="#c24a4e"></path><path d="M417.7 229L373.7 255L475 282Z" fill="#c24a4e" stroke="#c24a4e"></path><path d="M547.6 248L525.3 247L482.3 329Z" fill="#1f143f" stroke="#1f143f"></path><path d="M475 282L525.3 247L442 218Z" fill="#5a1f53" stroke="#5a1f53"></path><path d="M373.7 255L352.4 361L469 342Z" fill="#000a31" stroke="#000a31"></path><path d="M593.6 309L547.6 248L482.3 329Z" fill="#000a31" stroke="#000a31"></path><path d="M525.3 247L476.3 131L442 218Z" fill="#df763e" stroke="#df763e"></path><path d="M365.7 405L435 424L461 392Z" fill="#772557" stroke="#772557"></path><path d="M520.6 426L558.3 373L501.3 364Z" fill="#5a1f53" stroke="#5a1f53"></path><path d="M352.4 361L365.7 405L461 392Z" fill="#d35f46" stroke="#d35f46"></path><path d="M520.6 426L501.3 364L461 392Z" fill="#000a31" stroke="#000a31"></path><path d="M501.3 364L590.9 333L482.3 329Z" fill="#df763e" stroke="#df763e"></path><path d="M351.7 378L365.7 405L352.4 361Z" fill="#3c1a4b" stroke="#3c1a4b"></path><path d="M435 424L520.6 426L461 392Z" fill="#c24a4e" stroke="#c24a4e"></path><path d="M417.7 229L374.4 194L373.7 255Z" fill="#df763e" stroke="#df763e"></path><path d="M373.7 255L301.1 286L352.4 361Z" fill="#5a1f53" stroke="#5a1f53"></path><path d="M391 171L417.7 229L426.7 226Z" fill="#932d57" stroke="#932d57"></path><path d="M391 171L426.7 226L442 218Z" fill="#e68f35" stroke="#e68f35"></path><path d="M365.7 405L435.7 449L435 424Z" fill="#772557" stroke="#772557"></path><path d="M435 424L435.7 449L520.6 426Z" fill="#932d57" stroke="#932d57"></path><path d="M464.3 485L528.6 428L520.6 426Z" fill="#3c1a4b" stroke="#3c1a4b"></path><path d="M520.6 426L528.6 428L558.3 373Z" fill="#3c1a4b" stroke="#3c1a4b"></path><path d="M590.9 351L590.9 333L558.3 373Z" fill="#932d57" stroke="#932d57"></path><path d="M558.3 373L590.9 333L501.3 364Z" fill="#5a1f53" stroke="#5a1f53"></path><path d="M590.9 333L593.6 309L482.3 329Z" fill="#3c1a4b" stroke="#3c1a4b"></path><path d="M586.9 423L590.9 351L558.3 373Z" fill="#932d57" stroke="#932d57"></path><path d="M590.9 333L633.6 379L593.6 309Z" fill="#df763e" stroke="#df763e"></path><path d="M476.3 131L391 171L442 218Z" fill="#1f143f" stroke="#1f143f"></path><path d="M298.4 261L373.7 255L374.4 194Z" fill="#ac3954" stroke="#ac3954"></path><path d="M298.4 261L301.1 286L373.7 255Z" fill="#d35f46" stroke="#d35f46"></path><path d="M352.4 361L294.4 358L351.7 378Z" fill="#000a31" stroke="#000a31"></path><path d="M351.7 378L309.1 430L365.7 405Z" fill="#c24a4e" stroke="#c24a4e"></path><path d="M593.6 309L596.9 264L547.6 248Z" fill="#d35f46" stroke="#d35f46"></path><path d="M547.6 248L595.9 211L525.3 247Z" fill="#d35f46" stroke="#d35f46"></path><path d="M605.6 219L702.1 257L655.1 176Z" fill="#5a1f53" stroke="#5a1f53"></path><path d="M301.1 286L293.1 328L352.4 361Z" fill="#3c1a4b" stroke="#3c1a4b"></path><path d="M275.1 126L298.4 261L374.4 194Z" fill="#772557" stroke="#772557"></path><path d="M301.1 286L206.1 321L293.1 328Z" fill="#000a31" stroke="#000a31"></path><path d="M293.1 328L294.4 358L352.4 361Z" fill="#3c1a4b" stroke="#3c1a4b"></path><path d="M371.7 507L464.3 485L435.7 449Z" fill="#772557" stroke="#772557"></path><path d="M435.7 449L464.3 485L520.6 426Z" fill="#932d57" stroke="#932d57"></path><path d="M371.7 507L435.7 449L365.7 405Z" fill="#932d57" stroke="#932d57"></path><path d="M596.9 264L595.9 211L547.6 248Z" fill="#e68f35" stroke="#e68f35"></path><path d="M528.6 428L586.9 423L558.3 373Z" fill="#e68f35" stroke="#e68f35"></path><path d="M702.1 257L596.9 264L593.6 309Z" fill="#ac3954" stroke="#ac3954"></path><path d="M601.9 445L586.9 423L528.6 428Z" fill="#772557" stroke="#772557"></path><path d="M633.6 379L590.9 333L590.9 351Z" fill="#ac3954" stroke="#ac3954"></path><path d="M596.9 264L605.6 219L595.9 211Z" fill="#1f143f" stroke="#1f143f"></path><path d="M595.9 211L476.3 131L525.3 247Z" fill="#d35f46" stroke="#d35f46"></path><path d="M294.4 358L309.1 430L351.7 378Z" fill="#c24a4e" stroke="#c24a4e"></path><path d="M586.9 423L633.6 379L590.9 351Z" fill="#3c1a4b" stroke="#3c1a4b"></path><path d="M553.3 521L601.9 445L528.6 428Z" fill="#c24a4e" stroke="#c24a4e"></path><path d="M586.9 423L601.9 445L633.6 379Z" fill="#c24a4e" stroke="#c24a4e"></path><path d="M294.4 358L277.4 416L309.1 430Z" fill="#772557" stroke="#772557"></path><path d="M236.9 396L277.4 416L294.4 358Z" fill="#c24a4e" stroke="#c24a4e"></path><path d="M236.9 396L294.4 358L206.1 321Z" fill="#1f143f" stroke="#1f143f"></path><path d="M277.4 416L295.1 449L309.1 430Z" fill="#e68f35" stroke="#e68f35"></path><path d="M309.1 430L371.7 507L365.7 405Z" fill="#5a1f53" stroke="#5a1f53"></path><path d="M295.1 449L371.7 507L309.1 430Z" fill="#932d57" stroke="#932d57"></path><path d="M336.7 102L333.4 126L391 171Z" fill="#e68f35" stroke="#e68f35"></path><path d="M391 171L333.4 126L374.4 194Z" fill="#5a1f53" stroke="#5a1f53"></path><path d="M655.1 176L615.6 152L595.9 211Z" fill="#d35f46" stroke="#d35f46"></path><path d="M595.9 211L615.6 152L476.3 131Z" fill="#5a1f53" stroke="#5a1f53"></path><path d="M655.1 176L595.9 211L605.6 219Z" fill="#d35f46" stroke="#d35f46"></path><path d="M206.1 321L301.1 286L298.4 261Z" fill="#5a1f53" stroke="#5a1f53"></path><path d="M206.1 321L294.4 358L293.1 328Z" fill="#3c1a4b" stroke="#3c1a4b"></path><path d="M277.4 416L203.1 493L295.1 449Z" fill="#772557" stroke="#772557"></path><path d="M615.6 152L515.3 86L476.3 131Z" fill="#5a1f53" stroke="#5a1f53"></path><path d="M449 69L336.7 102L391 171Z" fill="#932d57" stroke="#932d57"></path><path d="M464.3 485L553.3 521L528.6 428Z" fill="#1f143f" stroke="#1f143f"></path><path d="M486 542L553.3 521L464.3 485Z" fill="#d35f46" stroke="#d35f46"></path><path d="M371.7 507L486 542L464.3 485Z" fill="#ac3954" stroke="#ac3954"></path><path d="M203.1 493L293.4 486L295.1 449Z" fill="#ac3954" stroke="#ac3954"></path><path d="M295.1 449L293.4 486L371.7 507Z" fill="#ac3954" stroke="#ac3954"></path><path d="M371.7 507L398 600L486 542Z" fill="#df763e" stroke="#df763e"></path><path d="M449 69L391 171L476.3 131Z" fill="#5a1f53" stroke="#5a1f53"></path><path d="M174.6 223L206.1 321L298.4 261Z" fill="#5a1f53" stroke="#5a1f53"></path><path d="M515.3 86L449 69L476.3 131Z" fill="#000a31" stroke="#000a31"></path><path d="M702.1 257L605.6 219L596.9 264Z" fill="#932d57" stroke="#932d57"></path><path d="M554.6 23L509.3 67L515.3 86Z" fill="#d35f46" stroke="#d35f46"></path><path d="M275.1 126L374.4 194L333.4 126Z" fill="#d35f46" stroke="#d35f46"></path><path d="M598.9 51L515.3 86L615.6 152Z" fill="#e68f35" stroke="#e68f35"></path><path d="M515.3 86L509.3 67L449 69Z" fill="#5a1f53" stroke="#5a1f53"></path><path d="M336.7 102L275.1 126L333.4 126Z" fill="#d35f46" stroke="#d35f46"></path><path d="M712.1 315L702.1 257L593.6 309Z" fill="#932d57" stroke="#932d57"></path><path d="M712.1 315L593.6 309L633.6 379Z" fill="#5a1f53" stroke="#5a1f53"></path><path d="M712.1 315L633.6 379L756.1 369Z" fill="#df763e" stroke="#df763e"></path><path d="M740.4 313L712.1 315L756.1 369Z" fill="#000a31" stroke="#000a31"></path><path d="M293.4 486L340.4 550L371.7 507Z" fill="#3c1a4b" stroke="#3c1a4b"></path><path d="M449 69L416.7 44L336.7 102Z" fill="#df763e" stroke="#df763e"></path><path d="M336.7 102L309.1 76L275.1 126Z" fill="#000a31" stroke="#000a31"></path><path d="M419 0L416.7 44L449 69Z" fill="#df763e" stroke="#df763e"></path><path d="M360.7 0L309.1 76L336.7 102Z" fill="#1f143f" stroke="#1f143f"></path><path d="M229.9 114L192.9 192L275.1 126Z" fill="#772557" stroke="#772557"></path><path d="M275.1 126L192.9 192L298.4 261Z" fill="#d35f46" stroke="#d35f46"></path><path d="M192.9 192L174.6 223L298.4 261Z" fill="#c24a4e" stroke="#c24a4e"></path><path d="M174.6 223L160.9 308L206.1 321Z" fill="#772557" stroke="#772557"></path><path d="M206.1 321L173.9 407L236.9 396Z" fill="#932d57" stroke="#932d57"></path><path d="M236.9 396L203.1 493L277.4 416Z" fill="#e68f35" stroke="#e68f35"></path><path d="M314.1 600L361.4 600L340.4 550Z" fill="#e68f35" stroke="#e68f35"></path><path d="M721.4 473L633.6 379L601.9 445Z" fill="#ac3954" stroke="#ac3954"></path><path d="M712.1 315L740.4 313L702.1 257Z" fill="#df763e" stroke="#df763e"></path><path d="M702.1 257L757.1 211L655.1 176Z" fill="#1f143f" stroke="#1f143f"></path><path d="M160.9 308L173.9 407L206.1 321Z" fill="#ac3954" stroke="#ac3954"></path><path d="M395.7 600L371.7 507L340.4 550Z" fill="#c24a4e" stroke="#c24a4e"></path><path d="M395.7 600L398 600L371.7 507Z" fill="#e68f35" stroke="#e68f35"></path><path d="M580.6 590L666.9 530L553.3 521Z" fill="#c24a4e" stroke="#c24a4e"></path><path d="M273.4 71L229.9 114L275.1 126Z" fill="#932d57" stroke="#932d57"></path><path d="M192.9 192L147.9 180L174.6 223Z" fill="#ac3954" stroke="#ac3954"></path><path d="M361.4 600L395.7 600L340.4 550Z" fill="#df763e" stroke="#df763e"></path><path d="M309.1 76L273.4 71L275.1 126Z" fill="#ac3954" stroke="#ac3954"></path><path d="M260.1 62L273.4 71L291.4 0Z" fill="#d35f46" stroke="#d35f46"></path><path d="M668.9 71L615.6 152L655.1 176Z" fill="#1f143f" stroke="#1f143f"></path><path d="M668.9 71L598.9 51L615.6 152Z" fill="#772557" stroke="#772557"></path><path d="M499.3 0L419 0L449 69Z" fill="#1f143f" stroke="#1f143f"></path><path d="M314.1 600L340.4 550L246.9 600Z" fill="#772557" stroke="#772557"></path><path d="M598.9 51L554.6 23L515.3 86Z" fill="#d35f46" stroke="#d35f46"></path><path d="M179.6 461L203.1 493L236.9 396Z" fill="#3c1a4b" stroke="#3c1a4b"></path><path d="M580.6 590L553.3 521L567.3 600Z" fill="#5a1f53" stroke="#5a1f53"></path><path d="M553.3 521L666.9 530L601.9 445Z" fill="#3c1a4b" stroke="#3c1a4b"></path><path d="M567.3 600L553.3 521L486 542Z" fill="#e68f35" stroke="#e68f35"></path><path d="M173.9 407L179.6 461L236.9 396Z" fill="#3c1a4b" stroke="#3c1a4b"></path><path d="M147.9 435L179.6 461L173.9 407Z" fill="#932d57" stroke="#932d57"></path><path d="M763.4 405L756.1 369L633.6 379Z" fill="#c24a4e" stroke="#c24a4e"></path><path d="M499.3 0L449 69L509.3 67Z" fill="#3c1a4b" stroke="#3c1a4b"></path><path d="M416.7 44L360.7 0L336.7 102Z" fill="#3c1a4b" stroke="#3c1a4b"></path><path d="M291.4 0L273.4 71L309.1 76Z" fill="#ac3954" stroke="#ac3954"></path><path d="M273.4 71L260.1 62L229.9 114Z" fill="#e68f35" stroke="#e68f35"></path><path d="M706.1 518L685.1 522L691.9 600Z" fill="#000a31" stroke="#000a31"></path><path d="M398 600L567.3 600L486 542Z" fill="#772557" stroke="#772557"></path><path d="M567.3 600L567.6 600L580.6 590Z" fill="#5a1f53" stroke="#5a1f53"></path><path d="M554.6 23L499.3 0L509.3 67Z" fill="#5a1f53" stroke="#5a1f53"></path><path d="M685.1 522L721.4 473L601.9 445Z" fill="#c24a4e" stroke="#c24a4e"></path><path d="M685.1 522L666.9 530L691.9 600Z" fill="#5a1f53" stroke="#5a1f53"></path><path d="M666.9 530L685.1 522L601.9 445Z" fill="#932d57" stroke="#932d57"></path><path d="M246.9 600L340.4 550L293.4 486Z" fill="#3c1a4b" stroke="#3c1a4b"></path><path d="M803.7 261L702.1 257L740.4 313Z" fill="#3c1a4b" stroke="#3c1a4b"></path><path d="M803.7 261L757.1 211L702.1 257Z" fill="#df763e" stroke="#df763e"></path><path d="M419 0L360.7 0L416.7 44Z" fill="#932d57" stroke="#932d57"></path><path d="M598.9 51L594.6 0L554.6 23Z" fill="#772557" stroke="#772557"></path><path d="M757.1 169L668.9 71L655.1 176Z" fill="#000a31" stroke="#000a31"></path><path d="M721.4 473L763.4 405L633.6 379Z" fill="#000a31" stroke="#000a31"></path><path d="M756.1 369L784.7 317L740.4 313Z" fill="#3c1a4b" stroke="#3c1a4b"></path><path d="M110.6 416L147.9 435L173.9 407Z" fill="#df763e" stroke="#df763e"></path><path d="M133.6 589L163.9 586L203.1 493Z" fill="#000a31" stroke="#000a31"></path><path d="M74.3 275L114.3 318L160.9 308Z" fill="#772557" stroke="#772557"></path><path d="M160.9 308L100.6 343L173.9 407Z" fill="#5a1f53" stroke="#5a1f53"></path><path d="M229.9 114L147.9 180L192.9 192Z" fill="#932d57" stroke="#932d57"></path><path d="M124.6 176L147.9 180L90.6 122Z" fill="#932d57" stroke="#932d57"></path><path d="M685.1 522L706.1 518L721.4 473Z" fill="#1f143f" stroke="#1f143f"></path><path d="M721.4 473L822.4 424L763.4 405Z" fill="#ac3954" stroke="#ac3954"></path><path d="M691.9 600L666.9 530L580.6 590Z" fill="#932d57" stroke="#932d57"></path><path d="M822.4 424L784.7 317L756.1 369Z" fill="#000a31" stroke="#000a31"></path><path d="M74.3 275L160.9 308L174.6 223Z" fill="#000a31" stroke="#000a31"></path><path d="M784.7 163L757.1 169L799.4 196Z" fill="#5a1f53" stroke="#5a1f53"></path><path d="M757.1 211L757.1 169L655.1 176Z" fill="#d35f46" stroke="#d35f46"></path><path d="M611.9 0L594.6 0L598.9 51Z" fill="#c24a4e" stroke="#c24a4e"></path><path d="M554.6 23L594.6 0L499.3 0Z" fill="#df763e" stroke="#df763e"></path><path d="M757.1 169L690.1 61L668.9 71Z" fill="#d35f46" stroke="#d35f46"></path><path d="M668.9 71L611.9 0L598.9 51Z" fill="#000a31" stroke="#000a31"></path><path d="M360.7 0L291.4 0L309.1 76Z" fill="#772557" stroke="#772557"></path><path d="M260.1 62L219.9 48L229.9 114Z" fill="#932d57" stroke="#932d57"></path><path d="M281.1 0L219.9 48L260.1 62Z" fill="#1f143f" stroke="#1f143f"></path><path d="M690.1 61L611.9 0L668.9 71Z" fill="#000a31" stroke="#000a31"></path><path d="M74.3 275L100.6 343L114.3 318Z" fill="#e68f35" stroke="#e68f35"></path><path d="M114.3 318L100.6 343L160.9 308Z" fill="#ac3954" stroke="#ac3954"></path><path d="M90.6 122L147.9 180L229.9 114Z" fill="#ac3954" stroke="#ac3954"></path><path d="M147.9 180L124.6 176L174.6 223Z" fill="#932d57" stroke="#932d57"></path><path d="M291.4 0L281.1 0L260.1 62Z" fill="#e68f35" stroke="#e68f35"></path><path d="M163.9 586L246.9 600L203.1 493Z" fill="#1f143f" stroke="#1f143f"></path><path d="M203.1 493L246.9 600L293.4 486Z" fill="#d35f46" stroke="#d35f46"></path><path d="M94.3 397L110.6 416L173.9 407Z" fill="#c24a4e" stroke="#c24a4e"></path><path d="M147.9 435L67.3 552L179.6 461Z" fill="#3c1a4b" stroke="#3c1a4b"></path><path d="M847.7 291L803.7 261L784.7 317Z" fill="#df763e" stroke="#df763e"></path><path d="M784.7 317L803.7 261L740.4 313Z" fill="#772557" stroke="#772557"></path><path d="M799.4 196L757.1 169L757.1 211Z" fill="#1f143f" stroke="#1f143f"></path><path d="M757.1 169L761.4 84L690.1 61Z" fill="#1f143f" stroke="#1f143f"></path><path d="M100.6 343L94.3 397L173.9 407Z" fill="#5a1f53" stroke="#5a1f53"></path><path d="M110.6 416L103.6 431L147.9 435Z" fill="#932d57" stroke="#932d57"></path><path d="M803.7 261L799.4 196L757.1 211Z" fill="#772557" stroke="#772557"></path><path d="M94.3 397L103.6 431L110.6 416Z" fill="#3c1a4b" stroke="#3c1a4b"></path><path d="M567.6 600L691.9 600L580.6 590Z" fill="#5a1f53" stroke="#5a1f53"></path><path d="M795.4 561L822.4 424L721.4 473Z" fill="#c24a4e" stroke="#c24a4e"></path><path d="M124.6 176L74.3 275L174.6 223Z" fill="#5a1f53" stroke="#5a1f53"></path><path d="M0 408L66.3 432L94.3 397Z" fill="#5a1f53" stroke="#5a1f53"></path><path d="M823.4 131L761.4 84L784.7 163Z" fill="#932d57" stroke="#932d57"></path><path d="M784.7 163L761.4 84L757.1 169Z" fill="#e68f35" stroke="#e68f35"></path><path d="M690.1 61L763.1 0L611.9 0Z" fill="#5a1f53" stroke="#5a1f53"></path><path d="M795.4 561L721.4 473L706.1 518Z" fill="#3c1a4b" stroke="#3c1a4b"></path><path d="M763.4 405L822.4 424L756.1 369Z" fill="#3c1a4b" stroke="#3c1a4b"></path><path d="M803.7 261L900 224L799.4 196Z" fill="#5a1f53" stroke="#5a1f53"></path><path d="M691.9 600L721.1 600L706.1 518Z" fill="#3c1a4b" stroke="#3c1a4b"></path><path d="M822.4 424L847.7 291L784.7 317Z" fill="#c24a4e" stroke="#c24a4e"></path><path d="M799.4 196L823.4 131L784.7 163Z" fill="#df763e" stroke="#df763e"></path><path d="M133.6 589L203.1 493L179.6 461Z" fill="#1f143f" stroke="#1f143f"></path><path d="M94.3 397L66.3 432L103.6 431Z" fill="#5a1f53" stroke="#5a1f53"></path><path d="M67.3 552L133.6 589L179.6 461Z" fill="#000a31" stroke="#000a31"></path><path d="M0 348L94.3 397L100.6 343Z" fill="#5a1f53" stroke="#5a1f53"></path><path d="M76.6 79L90.6 122L219.9 48Z" fill="#d35f46" stroke="#d35f46"></path><path d="M219.9 48L90.6 122L229.9 114Z" fill="#1f143f" stroke="#1f143f"></path><path d="M36.3 168L20.3 253L74.3 275Z" fill="#1f143f" stroke="#1f143f"></path><path d="M281.1 0L185.9 0L219.9 48Z" fill="#3c1a4b" stroke="#3c1a4b"></path><path d="M854.7 146L823.4 131L799.4 196Z" fill="#d35f46" stroke="#d35f46"></path><path d="M67.3 552L147.9 435L103.6 431Z" fill="#d35f46" stroke="#d35f46"></path><path d="M163.9 586L135.6 600L246.9 600Z" fill="#5a1f53" stroke="#5a1f53"></path><path d="M828.4 0L766.4 28L761.4 84Z" fill="#ac3954" stroke="#ac3954"></path><path d="M761.4 84L766.4 28L690.1 61Z" fill="#c24a4e" stroke="#c24a4e"></path><path d="M721.1 600L795.4 561L706.1 518Z" fill="#1f143f" stroke="#1f143f"></path><path d="M63.3 600L135.6 600L133.6 589Z" fill="#df763e" stroke="#df763e"></path><path d="M133.6 589L135.6 600L163.9 586Z" fill="#c24a4e" stroke="#c24a4e"></path><path d="M900 473L862.7 429L822.4 424Z" fill="#932d57" stroke="#932d57"></path><path d="M900 387L900 325L847.7 291Z" fill="#5a1f53" stroke="#5a1f53"></path><path d="M185.9 0L152.6 0L219.9 48Z" fill="#ac3954" stroke="#ac3954"></path><path d="M721.1 600L768.4 600L795.4 561Z" fill="#5a1f53" stroke="#5a1f53"></path><path d="M36.3 168L74.3 275L124.6 176Z" fill="#000a31" stroke="#000a31"></path><path d="M74.3 275L0 348L100.6 343Z" fill="#ac3954" stroke="#ac3954"></path><path d="M36.3 168L124.6 176L90.6 122Z" fill="#3c1a4b" stroke="#3c1a4b"></path><path d="M900 175L854.7 146L799.4 196Z" fill="#ac3954" stroke="#ac3954"></path><path d="M828.4 0L784.7 0L766.4 28Z" fill="#932d57" stroke="#932d57"></path><path d="M900 224L803.7 261L847.7 291Z" fill="#932d57" stroke="#932d57"></path><path d="M37.3 146L36.3 168L90.6 122Z" fill="#5a1f53" stroke="#5a1f53"></path><path d="M152.6 0L76.6 79L219.9 48Z" fill="#c24a4e" stroke="#c24a4e"></path><path d="M784.7 0L763.1 0L766.4 28Z" fill="#df763e" stroke="#df763e"></path><path d="M766.4 28L763.1 0L690.1 61Z" fill="#df763e" stroke="#df763e"></path><path d="M76.6 79L37.3 146L90.6 122Z" fill="#000a31" stroke="#000a31"></path><path d="M36.3 168L0 182L20.3 253Z" fill="#e68f35" stroke="#e68f35"></path><path d="M900 387L847.7 291L822.4 424Z" fill="#772557" stroke="#772557"></path><path d="M900 325L900 294L847.7 291Z" fill="#c24a4e" stroke="#c24a4e"></path><path d="M893.7 528L900 473L822.4 424Z" fill="#772557" stroke="#772557"></path><path d="M768.4 600L796.7 600L795.4 561Z" fill="#df763e" stroke="#df763e"></path><path d="M20.3 253L0 348L74.3 275Z" fill="#ac3954" stroke="#ac3954"></path><path d="M66.3 432L67.3 552L103.6 431Z" fill="#c24a4e" stroke="#c24a4e"></path><path d="M0 182L0 348L20.3 253Z" fill="#772557" stroke="#772557"></path><path d="M0 434L67.3 552L66.3 432Z" fill="#3c1a4b" stroke="#3c1a4b"></path><path d="M869.7 103L761.4 84L823.4 131Z" fill="#000a31" stroke="#000a31"></path><path d="M862.7 429L900 387L822.4 424Z" fill="#000a31" stroke="#000a31"></path><path d="M900 473L900 387L862.7 429Z" fill="#d35f46" stroke="#d35f46"></path><path d="M900 294L900 224L847.7 291Z" fill="#c24a4e" stroke="#c24a4e"></path><path d="M854.7 146L869.7 103L823.4 131Z" fill="#df763e" stroke="#df763e"></path><path d="M0 348L0 408L94.3 397Z" fill="#3c1a4b" stroke="#3c1a4b"></path><path d="M0 408L0 425L66.3 432Z" fill="#5a1f53" stroke="#5a1f53"></path><path d="M0 425L0 434L66.3 432Z" fill="#c24a4e" stroke="#c24a4e"></path><path d="M900 175L869.7 103L854.7 146Z" fill="#df763e" stroke="#df763e"></path><path d="M0 141L36.3 168L37.3 146Z" fill="#5a1f53" stroke="#5a1f53"></path><path d="M0 141L0 182L36.3 168Z" fill="#e68f35" stroke="#e68f35"></path><path d="M900 224L900 175L799.4 196Z" fill="#c24a4e" stroke="#c24a4e"></path><path d="M893.7 528L822.4 424L795.4 561Z" fill="#1f143f" stroke="#1f143f"></path><path d="M0 139L0 141L37.3 146Z" fill="#c24a4e" stroke="#c24a4e"></path><path d="M0 139L37.3 146L0 91Z" fill="#3c1a4b" stroke="#3c1a4b"></path><path d="M0 91L37.3 146L76.6 79Z" fill="#772557" stroke="#772557"></path><path d="M0 585L63.3 600L67.3 552Z" fill="#df763e" stroke="#df763e"></path><path d="M67.3 552L63.3 600L133.6 589Z" fill="#000a31" stroke="#000a31"></path><path d="M900 64L828.4 0L869.7 103Z" fill="#000a31" stroke="#000a31"></path><path d="M869.7 103L828.4 0L761.4 84Z" fill="#772557" stroke="#772557"></path><path d="M900 537L893.7 528L882.7 569Z" fill="#3c1a4b" stroke="#3c1a4b"></path><path d="M34.3 0L0 91L76.6 79Z" fill="#ac3954" stroke="#ac3954"></path><path d="M152.6 0L54.3 1L76.6 79Z" fill="#d35f46" stroke="#d35f46"></path><path d="M882.7 569L893.7 528L795.4 561Z" fill="#1f143f" stroke="#1f143f"></path><path d="M893.7 528L900 537L900 473Z" fill="#df763e" stroke="#df763e"></path><path d="M796.7 600L882.7 569L795.4 561Z" fill="#000a31" stroke="#000a31"></path><path d="M900 175L900 65L869.7 103Z" fill="#000a31" stroke="#000a31"></path><path d="M900 65L900 64L869.7 103Z" fill="#3c1a4b" stroke="#3c1a4b"></path><path d="M152.6 0L34.3 0L54.3 1Z" fill="#c24a4e" stroke="#c24a4e"></path><path d="M54.3 1L34.3 0L76.6 79Z" fill="#932d57" stroke="#932d57"></path><path d="M0 434L0 585L67.3 552Z" fill="#772557" stroke="#772557"></path><path d="M796.7 600L900 600L882.7 569Z" fill="#c24a4e" stroke="#c24a4e"></path><path d="M882.7 569L900 600L900 537Z" fill="#c24a4e" stroke="#c24a4e"></path><path d="M0 585L0 600L63.3 600Z" fill="#d35f46" stroke="#d35f46"></path><path d="M900 64L900 0L828.4 0Z" fill="#772557" stroke="#772557"></path><path d="M34.3 0L0 0L0 91Z" fill="#df763e" stroke="#df763e"></path></g></svg>