<svg xmlns="http://www.w3.org/2000/svg" xmlns:xlink="http://www.w3.org/1999/xlink" viewBox="0 0 513 513"><defs><style>.cls-1{fill:#1e293b;stroke:#1d1d1b;stroke-miterlimit:10;}.cls-2{fill:url(#Dégradé_sans_nom_9);}</style><linearGradient id="Dégradé_sans_nom_9" x1="120.44" y1="256" x2="391.56" y2="256" gradientUnits="userSpaceOnUse"><stop offset="0" stop-color="#c9b2d7"/><stop offset="1" stop-color="#635ca5"/></linearGradient></defs><g id="Background"><rect class="cls-1" x="0.5" y="0.5" width="512" height="512"/></g><g id="Calque_2" data-name="Calque 2"><path class="cls-2" d="M375.5,410.19l-5.15,1.88a24.39,24.39,0,0,1-31.26-14.58l-79.31-217.9a4,4,0,0,0-7.55,0l-79.31,217.9a24.4,24.4,0,0,1-31.26,14.58l-5.17-1.88a24.39,24.39,0,0,1-14.57-31.26L205.25,150c.08-.23.19-.45.29-.68,2-4.26,19-50.48,50.46-50.85s48.5,46.56,50.47,50.87a6.07,6.07,0,0,1,.29.7l83.33,228.91A24.4,24.4,0,0,1,375.5,410.19Z" transform="translate(0.5 0.5)"/></g></svg>