<svg id="Calque_1" data-name="Calque 1" xmlns="http://www.w3.org/2000/svg" xmlns:xlink="http://www.w3.org/1999/xlink" viewBox="0 0 132.18 132.18"><defs><style>.cls-1{fill:url(#Dégradé_sans_nom_74);}.cls-2{fill:url(#Dégradé_sans_nom_74-2);}.cls-3{fill:url(#Dégradé_sans_nom_74-3);}</style><linearGradient id="Dégradé_sans_nom_74" x1="5.58" y1="61.17" x2="125.25" y2="61.17" gradientUnits="userSpaceOnUse"><stop offset="0" stop-color="#f49723"/><stop offset="1" stop-color="#ffd203"/></linearGradient><linearGradient id="Dégradé_sans_nom_74-2" x1="38.2" y1="77.07" x2="108.44" y2="77.07" xlink:href="#Dégradé_sans_nom_74"/><linearGradient id="Dégradé_sans_nom_74-3" x1="59.53" y1="53.44" x2="68.78" y2="53.44" xlink:href="#Dégradé_sans_nom_74"/></defs><path class="cls-1" d="M65.35,114.23q-25.42,0-50.85,0a8.61,8.61,0,0,1-8.89-9.57,9.84,9.84,0,0,1,1.29-3.89Q32.1,57,57.38,13.23c4-6.87,12.08-6.82,16.07.07q25.17,43.59,50.32,87.19c3.86,6.69-.2,13.72-7.93,13.73q-25.25,0-50.49,0Zm.08-5.55H115c.48,0,1,0,1.45,0a3.22,3.22,0,0,0,2.92-4.73c-.22-.49-.5-1-.77-1.43L68.72,16.14C66.8,12.81,64,12.85,62,16.21L12.06,102.76c-2.09,3.61-.76,5.92,3.44,5.92Z"/><path class="cls-2" d="M80.37,85.07c1.79-2,4.07-2.6,6.65-2.81a6.58,6.58,0,0,0,3.48-1.88C93,78,95.81,78,97.7,80.89c3.66,5.59,7.1,11.33,10.62,17a2.58,2.58,0,0,1,.12.63H69.6c-.36-2.53.51-4.17,2.71-5.1,1-.42,2-.73,3-1.14A6.51,6.51,0,0,0,79,87.77l-6.54-3.43c-2.24,2.34-3.81,2.17-5.08-.73a7.8,7.8,0,0,0-4.21-4.16c-2-.9-3.91-2-5.86-3l-.35.38a8.85,8.85,0,0,0,.89,1.28c1.56,1.59,3.28,3.06,4.69,4.77a3.76,3.76,0,0,1,.72,2.87c-.87,3.56-2,7.07-3,10.59-.57,1.89-1.66,2.63-3.11,2.23s-2-1.71-1.48-3.67c.8-2.78,1.67-5.54,2.42-8.33a2.15,2.15,0,0,0-.28-1.73,56,56,0,0,0-6-5.93c1.79,4.23,0,7.6-2,11-1.38,2.33-2.55,4.78-3.85,7.16-.88,1.6-2.09,2-3.41,1.29s-1.61-2-.77-3.58c1.67-3.2,3.45-6.35,5-9.6a6.22,6.22,0,0,0,.48-3.23c-.23-2.15-.84-4.26-1.07-6.41a18.77,18.77,0,0,1,.31-3.69,2.8,2.8,0,0,1-3.22-2.2c-.16-.52-.86-.93-1.4-1.26a25.81,25.81,0,0,1-3.14-1.75,2,2,0,0,1-.5-1.91c.25-.44,1.29-.66,1.92-.57a10.67,10.67,0,0,1,2.47,1.16c-.2-1.5-.38-2.74-.54-4a2.5,2.5,0,0,1,2.06-3.08c3.55-.91,7.09-1.89,10.66-2.71a3.92,3.92,0,0,1,2.41.37,55.16,55.16,0,0,1,6.47,3.59c.8.54,1.15,1.76,1.69,2.69a.52.52,0,0,1,0,.35C64.25,69.17,68,74.27,70.78,79.7a2.14,2.14,0,0,0,.91.82C74.55,82.05,77.44,83.54,80.37,85.07ZM48.11,68.12l.42,0,2.89-6.6c-4.17.5-4.18.5-3.71,4.3C47.81,66.61,48,67.36,48.11,68.12Zm15.4,8.12-3.19-6.71-1.81,4.09Z"/><path class="cls-3" d="M64.1,58.07a4.7,4.7,0,0,1-4.57-4.62,4.65,4.65,0,0,1,4.71-4.65,4.56,4.56,0,0,1,4.54,4.6A4.63,4.63,0,0,1,64.1,58.07Z"/></svg>