<svg id="visual" viewBox="0 0 900 600" width="900" height="600" xmlns="http://www.w3.org/2000/svg" xmlns:xlink="http://www.w3.org/1999/xlink" version="1.1"><path d="M0 342L30 352.2C60 362.3 120 382.7 180 385C240 387.3 300 371.7 360 372.3C420 373 480 390 540 392.7C600 395.3 660 383.7 720 380.3C780 377 840 382 870 384.5L900 387L900 601L870 601C840 601 780 601 720 601C660 601 600 601 540 601C480 601 420 601 360 601C300 601 240 601 180 601C120 601 60 601 30 601L0 601Z" fill="#b57bee"></path><path d="M0 407L30 410.7C60 414.3 120 421.7 180 426.2C240 430.7 300 432.3 360 430.2C420 428 480 422 540 416.3C600 410.7 660 405.3 720 404C780 402.7 840 405.3 870 406.7L900 408L900 601L870 601C840 601 780 601 720 601C660 601 600 601 540 601C480 601 420 601 360 601C300 601 240 601 180 601C120 601 60 601 30 601L0 601Z" fill="#9367cc"></path><path d="M0 445L30 443.2C60 441.3 120 437.7 180 436C240 434.3 300 434.7 360 439.7C420 444.7 480 454.3 540 460.8C600 467.3 660 470.7 720 475.5C780 480.3 840 486.7 870 489.8L900 493L900 601L870 601C840 601 780 601 720 601C660 601 600 601 540 601C480 601 420 601 360 601C300 601 240 601 180 601C120 601 60 601 30 601L0 601Z" fill="#7353aa"></path><path d="M0 483L30 484C60 485 120 487 180 494C240 501 300 513 360 514.8C420 516.7 480 508.3 540 501.7C600 495 660 490 720 493.3C780 496.7 840 508.3 870 514.2L900 520L900 601L870 601C840 601 780 601 720 601C660 601 600 601 540 601C480 601 420 601 360 601C300 601 240 601 180 601C120 601 60 601 30 601L0 601Z" fill="#554089"></path><path d="M0 544L30 546.2C60 548.3 120 552.7 180 553.2C240 553.7 300 550.3 360 552C420 553.7 480 560.3 540 558.5C600 556.7 660 546.3 720 539.5C780 532.7 840 529.3 870 527.7L900 526L900 601L870 601C840 601 780 601 720 601C660 601 600 601 540 601C480 601 420 601 360 601C300 601 240 601 180 601C120 601 60 601 30 601L0 601Z" fill="#392d69"></path></svg>